<?xml version="1.0" encoding="UTF-8"?>
<svg xmlns="http://www.w3.org/2000/svg" version="1.1"
     width="460" height="690" viewBox="75 -5 460 690">
  <defs>
    <marker id="ah3498db" viewBox="0 0 10 10" refX="9" refY="5" markerWidth="7" markerHeight="7" orient="auto-start-auto"><path d="M 0 1 L 8 5 L 0 9 z" fill="#3498db" /></marker>
    <marker id="ah2ecc71" viewBox="0 0 10 10" refX="9" refY="5" markerWidth="7" markerHeight="7" orient="auto-start-auto"><path d="M 0 1 L 8 5 L 0 9 z" fill="#2ecc71" /></marker>
    <marker id="ah1abc9c" viewBox="0 0 10 10" refX="9" refY="5" markerWidth="7" markerHeight="7" orient="auto-start-auto"><path d="M 0 1 L 8 5 L 0 9 z" fill="#1abc9c" /></marker>
    <marker id="ah9b59b6" viewBox="0 0 10 10" refX="9" refY="5" markerWidth="7" markerHeight="7" orient="auto-start-auto"><path d="M 0 1 L 8 5 L 0 9 z" fill="#9b59b6" /></marker>
    <marker id="ahe74c3c" viewBox="0 0 10 10" refX="9" refY="5" markerWidth="7" markerHeight="7" orient="auto-start-auto"><path d="M 0 1 L 8 5 L 0 9 z" fill="#e74c3c" /></marker>
  </defs>
  <rect x="75" y="-5" width="460" height="690" fill="#1a1a2e" rx="12" ry="12" />
  <line x1="430.0" y1="70.0" x2="430.0" y2="90.0" stroke="#3498db" stroke-width="2" stroke-linecap="round" marker-end="url(#ah3498db)" />
  <line x1="430.0" y1="150.0" x2="430.0" y2="170.0" stroke="#3498db" stroke-width="2" stroke-linecap="round" marker-end="url(#ah3498db)" />
  <line x1="430.0" y1="230.0" x2="430.0" y2="250.0" stroke="#9b59b6" stroke-width="2" stroke-linecap="round" marker-end="url(#ah9b59b6)" />
  <line x1="350.0" y1="288.4" x2="270.0" y2="286.8" stroke="#e74c3c" stroke-width="2" stroke-linecap="round" marker-end="url(#ahe74c3c)" />
  <rect x="289.0" y="273.5" width="32" height="18" rx="9" fill="#1a1a2e" fill-opacity="0.85" />
  <text x="305.0" y="285.5" text-anchor="middle" font-family="Segoe UI,Helvetica,Arial,sans-serif" font-size="11" font-weight="700" fill="#e74c3c">Yes</text>
  <line x1="430.0" y1="320.0" x2="430.0" y2="340.0" stroke="#2ecc71" stroke-width="2" stroke-linecap="round" marker-end="url(#ah2ecc71)" />
  <rect x="414.0" y="321.0" width="32" height="18" rx="9" fill="#1a1a2e" fill-opacity="0.85" />
  <text x="430.0" y="333.0" text-anchor="middle" font-family="Segoe UI,Helvetica,Arial,sans-serif" font-size="11" font-weight="700" fill="#2ecc71">No</text>
  <line x1="430.0" y1="400.0" x2="430.0" y2="420.0" stroke="#2ecc71" stroke-width="2" stroke-linecap="round" marker-end="url(#ah2ecc71)" />
  <line x1="387.1" y1="430.0" x2="223.9" y2="315.7" stroke="#e74c3c" stroke-width="2" stroke-linecap="round" marker-end="url(#ahe74c3c)" />
  <rect x="285.42857142857144" y="356.0" width="32" height="18" rx="9" fill="#1a1a2e" fill-opacity="0.85" />
  <text x="301.4" y="368.0" text-anchor="middle" font-family="Segoe UI,Helvetica,Arial,sans-serif" font-size="11" font-weight="700" fill="#e74c3c">Yes</text>
  <line x1="430.0" y1="490.0" x2="430.0" y2="510.0" stroke="#2ecc71" stroke-width="2" stroke-linecap="round" marker-end="url(#ah2ecc71)" />
  <rect x="414.0" y="491.0" width="32" height="18" rx="9" fill="#1a1a2e" fill-opacity="0.85" />
  <text x="430.0" y="503.0" text-anchor="middle" font-family="Segoe UI,Helvetica,Arial,sans-serif" font-size="11" font-weight="700" fill="#2ecc71">No</text>
  <line x1="401.7" y1="520.0" x2="210.4" y2="317.3" stroke="#e74c3c" stroke-width="2" stroke-linecap="round" marker-end="url(#ahe74c3c)" />
  <rect x="286.64150943396226" y="401.0" width="32" height="18" rx="9" fill="#1a1a2e" fill-opacity="0.85" />
  <text x="302.6" y="413.0" text-anchor="middle" font-family="Segoe UI,Helvetica,Arial,sans-serif" font-size="11" font-weight="700" fill="#e74c3c">Yes</text>
  <line x1="430.0" y1="580.0" x2="430.0" y2="600.0" stroke="#1abc9c" stroke-width="2" stroke-linecap="round" marker-end="url(#ah1abc9c)" />
  <rect x="414.0" y="581.0" width="32" height="18" rx="9" fill="#1a1a2e" fill-opacity="0.85" />
  <text x="430.0" y="593.0" text-anchor="middle" font-family="Segoe UI,Helvetica,Arial,sans-serif" font-size="11" font-weight="700" fill="#1abc9c">No</text>
  <rect x="352" y="23" width="160" height="50" rx="10" ry="10" fill="black" fill-opacity="0.25" />
  <rect x="350" y="20" width="160" height="50" rx="10" ry="10" fill="#2c3e50" stroke="#3498db" stroke-width="2.5" />
  <text x="430.0" y="49.5" text-anchor="middle" font-family="Segoe UI,Helvetica,Arial,sans-serif" font-size="13" font-weight="700" fill="#ffffff">User Request</text>
  <rect x="352" y="103" width="160" height="50" rx="10" ry="10" fill="black" fill-opacity="0.25" />
  <rect x="350" y="100" width="160" height="50" rx="10" ry="10" fill="#2980b9" stroke="#3498db" stroke-width="2.5" />
  <text x="430.0" y="121.0" text-anchor="middle" font-family="Segoe UI,Helvetica,Arial,sans-serif" font-size="13" font-weight="700" fill="#ffffff">Auth &amp;</text>
  <text x="430.0" y="138.0" text-anchor="middle" font-family="Segoe UI,Helvetica,Arial,sans-serif" font-size="13" font-weight="700" fill="#ffffff">Authorization</text>
  <rect x="352" y="183" width="160" height="50" rx="10" ry="10" fill="black" fill-opacity="0.25" />
  <rect x="350" y="180" width="160" height="50" rx="10" ry="10" fill="#8e44ad" stroke="#9b59b6" stroke-width="2.5" />
  <text x="430.0" y="201.0" text-anchor="middle" font-family="Segoe UI,Helvetica,Arial,sans-serif" font-size="13" font-weight="700" fill="#ffffff">Data Access</text>
  <text x="430.0" y="218.0" text-anchor="middle" font-family="Segoe UI,Helvetica,Arial,sans-serif" font-size="13" font-weight="700" fill="#ffffff">Monitor</text>
  <polygon points="430.0,263 512,293.0 430.0,323 348,293.0" fill="black" fill-opacity="0.3" />
  <polygon points="430.0,260 510,290.0 430.0,320 350,290.0" fill="#f39c12" stroke="#e67e22" stroke-width="2.5" />
  <text x="430.0" y="294.5" text-anchor="middle" font-family="Segoe UI,Helvetica,Arial,sans-serif" font-size="13" font-weight="700" fill="#ffffff">Anomaly?</text>
  <rect x="102" y="263" width="160" height="50" rx="10" ry="10" fill="black" fill-opacity="0.25" />
  <rect x="100" y="260" width="160" height="50" rx="10" ry="10" fill="#e74c3c" stroke="#c0392b" stroke-width="2.5" />
  <text x="180.0" y="289.5" text-anchor="middle" font-family="Segoe UI,Helvetica,Arial,sans-serif" font-size="13" font-weight="700" fill="#ffffff">Alert &amp; Block</text>
  <rect x="352" y="353" width="160" height="50" rx="10" ry="10" fill="black" fill-opacity="0.25" />
  <rect x="350" y="350" width="160" height="50" rx="10" ry="10" fill="#27ae60" stroke="#2ecc71" stroke-width="2.5" />
  <text x="430.0" y="379.5" text-anchor="middle" font-family="Segoe UI,Helvetica,Arial,sans-serif" font-size="13" font-weight="700" fill="#ffffff">Execute Query</text>
  <polygon points="430.0,433 512,463.0 430.0,493 348,463.0" fill="black" fill-opacity="0.3" />
  <polygon points="430.0,430 510,460.0 430.0,490 350,460.0" fill="#f39c12" stroke="#e67e22" stroke-width="2.5" />
  <text x="430.0" y="464.5" text-anchor="middle" font-family="Segoe UI,Helvetica,Arial,sans-serif" font-size="13" font-weight="700" fill="#ffffff">Bulk Transfer?</text>
  <polygon points="430.0,523 512,553.0 430.0,583 348,553.0" fill="black" fill-opacity="0.3" />
  <polygon points="430.0,520 510,550.0 430.0,580 350,550.0" fill="#f39c12" stroke="#e67e22" stroke-width="2.5" />
  <text x="430.0" y="546.0" text-anchor="middle" font-family="Segoe UI,Helvetica,Arial,sans-serif" font-size="13" font-weight="700" fill="#ffffff">Rate</text>
  <text x="430.0" y="563.0" text-anchor="middle" font-family="Segoe UI,Helvetica,Arial,sans-serif" font-size="13" font-weight="700" fill="#ffffff">Exceeded?</text>
  <rect x="352" y="613" width="160" height="50" rx="10" ry="10" fill="black" fill-opacity="0.25" />
  <rect x="350" y="610" width="160" height="50" rx="10" ry="10" fill="#16a085" stroke="#1abc9c" stroke-width="2.5" />
  <text x="430.0" y="639.5" text-anchor="middle" font-family="Segoe UI,Helvetica,Arial,sans-serif" font-size="13" font-weight="700" fill="#ffffff">Send Response</text>
</svg>