<?xml version="1.0" encoding="UTF-8" standalone="no"?>
<!DOCTYPE svg PUBLIC "-//W3C//DTD SVG 1.1//EN"
 "http://www.w3.org/Graphics/SVG/1.1/DTD/svg11.dtd">
<!-- Generated by graphviz version 14.1.2 (20260124.0452)
 -->
<!-- Title: tactics Pages: 1 -->
<svg width="2440pt" height="144pt"
 viewBox="0.00 0.00 2440.00 144.00" xmlns="http://www.w3.org/2000/svg" xmlns:xlink="http://www.w3.org/1999/xlink">
<g id="graph0" class="graph" transform="scale(1 1) rotate(0) translate(28.8 114.8)">
<title>tactics</title>
<polygon fill="#1a1a2e" stroke="none" points="-28.8,28.8 -28.8,-114.8 2411.6,-114.8 2411.6,28.8 -28.8,28.8"/>
<g id="clust1" class="cluster">
<title>cluster_Pre&#45;Attack</title>
<path fill="#1a1a2e" stroke="#555555" stroke-width="1.5" stroke-dasharray="5,2" d="M20,-8C20,-8 284.4,-8 284.4,-8 290.4,-8 296.4,-14 296.4,-20 296.4,-20 296.4,-66 296.4,-66 296.4,-72 290.4,-78 284.4,-78 284.4,-78 20,-78 20,-78 14,-78 8,-72 8,-66 8,-66 8,-20 8,-20 8,-14 14,-8 20,-8"/>
<text xml:space="preserve" text-anchor="middle" x="152.2" y="-61.65" font-family="Segoe UI,Helvetica,Arial,sans-serif" font-size="13.00" fill="#999999">Pre&#45;Attack</text>
</g>
<g id="clust2" class="cluster">
<title>cluster_GetIn</title>
<path fill="#1a1a2e" stroke="#555555" stroke-width="1.5" stroke-dasharray="5,2" d="M366.4,-8C366.4,-8 977.2,-8 977.2,-8 983.2,-8 989.2,-14 989.2,-20 989.2,-20 989.2,-66 989.2,-66 989.2,-72 983.2,-78 977.2,-78 977.2,-78 366.4,-78 366.4,-78 360.4,-78 354.4,-72 354.4,-66 354.4,-66 354.4,-20 354.4,-20 354.4,-14 360.4,-8 366.4,-8"/>
<text xml:space="preserve" text-anchor="middle" x="671.8" y="-61.65" font-family="Segoe UI,Helvetica,Arial,sans-serif" font-size="13.00" fill="#999999">Get In</text>
</g>
<g id="clust3" class="cluster">
<title>cluster_StayIn</title>
<path fill="#1a1a2e" stroke="#555555" stroke-width="1.5" stroke-dasharray="5,2" d="M1059.2,-8C1059.2,-8 1670,-8 1670,-8 1676,-8 1682,-14 1682,-20 1682,-20 1682,-66 1682,-66 1682,-72 1676,-78 1670,-78 1670,-78 1059.2,-78 1059.2,-78 1053.2,-78 1047.2,-72 1047.2,-66 1047.2,-66 1047.2,-20 1047.2,-20 1047.2,-14 1053.2,-8 1059.2,-8"/>
<text xml:space="preserve" text-anchor="middle" x="1364.6" y="-61.65" font-family="Segoe UI,Helvetica,Arial,sans-serif" font-size="13.00" fill="#999999">Stay In</text>
</g>
<g id="clust4" class="cluster">
<title>cluster_Act</title>
<path fill="#1a1a2e" stroke="#555555" stroke-width="1.5" stroke-dasharray="5,2" d="M1752,-8C1752,-8 2362.8,-8 2362.8,-8 2368.8,-8 2374.8,-14 2374.8,-20 2374.8,-20 2374.8,-66 2374.8,-66 2374.8,-72 2368.8,-78 2362.8,-78 2362.8,-78 1752,-78 1752,-78 1746,-78 1740,-72 1740,-66 1740,-66 1740,-20 1740,-20 1740,-14 1746,-8 1752,-8"/>
<text xml:space="preserve" text-anchor="middle" x="2057.4" y="-61.65" font-family="Segoe UI,Helvetica,Arial,sans-serif" font-size="13.00" fill="#999999">Act</text>
</g>
<!-- RECON -->
<g id="node1" class="node">
<title>RECON</title>
<path fill="#3498db" stroke="#3498db" stroke-width="2.5" d="M111.2,-51.6C111.2,-51.6 20,-51.6 20,-51.6 14,-51.6 8,-45.6 8,-39.6 8,-39.6 8,-20.4 8,-20.4 8,-14.4 14,-8.4 20,-8.4 20,-8.4 111.2,-8.4 111.2,-8.4 117.2,-8.4 123.2,-14.4 123.2,-20.4 123.2,-20.4 123.2,-39.6 123.2,-39.6 123.2,-45.6 117.2,-51.6 111.2,-51.6"/>
<text xml:space="preserve" text-anchor="middle" x="65.6" y="-26.65" font-family="Segoe UI,Helvetica,Arial,sans-serif" font-size="13.00" fill="white">Reconnaissance</text>
</g>
<!-- RESDEV -->
<g id="node2" class="node">
<title>RESDEV</title>
<path fill="#3498db" stroke="#3498db" stroke-width="2.5" d="M284.4,-52C284.4,-52 193.2,-52 193.2,-52 187.2,-52 181.2,-46 181.2,-40 181.2,-40 181.2,-20 181.2,-20 181.2,-14 187.2,-8 193.2,-8 193.2,-8 284.4,-8 284.4,-8 290.4,-8 296.4,-14 296.4,-20 296.4,-20 296.4,-40 296.4,-40 296.4,-46 290.4,-52 284.4,-52"/>
<text xml:space="preserve" text-anchor="middle" x="238.8" y="-35.65" font-family="Segoe UI,Helvetica,Arial,sans-serif" font-size="13.00" fill="white">Resource</text>
<text xml:space="preserve" text-anchor="middle" x="238.8" y="-17.65" font-family="Segoe UI,Helvetica,Arial,sans-serif" font-size="13.00" fill="white">Development</text>
</g>
<!-- RECON&#45;&gt;RESDEV -->
<g id="edge1" class="edge">
<title>RECON&#45;&gt;RESDEV</title>
<path fill="none" stroke="#3498db" stroke-width="2" d="M124.08,-30C138.34,-30 153.77,-30 168.52,-30"/>
<polygon fill="#3498db" stroke="#3498db" stroke-width="2" points="168.15,-33.15 177.15,-30 168.15,-26.85 168.15,-33.15"/>
</g>
<!-- IA -->
<g id="node3" class="node">
<title>IA</title>
<path fill="#e74c3c" stroke="#e74c3c" stroke-width="2.5" d="M457.6,-52C457.6,-52 366.4,-52 366.4,-52 360.4,-52 354.4,-46 354.4,-40 354.4,-40 354.4,-20 354.4,-20 354.4,-14 360.4,-8 366.4,-8 366.4,-8 457.6,-8 457.6,-8 463.6,-8 469.6,-14 469.6,-20 469.6,-20 469.6,-40 469.6,-40 469.6,-46 463.6,-52 457.6,-52"/>
<text xml:space="preserve" text-anchor="middle" x="412" y="-35.65" font-family="Segoe UI,Helvetica,Arial,sans-serif" font-size="13.00" fill="white">Initial</text>
<text xml:space="preserve" text-anchor="middle" x="412" y="-17.65" font-family="Segoe UI,Helvetica,Arial,sans-serif" font-size="13.00" fill="white">Access</text>
</g>
<!-- RESDEV&#45;&gt;IA -->
<g id="edge5" class="edge">
<title>RESDEV&#45;&gt;IA</title>
<path fill="none" stroke="white" stroke-width="2" d="M297.28,-30C311.54,-30 326.97,-30 341.72,-30"/>
<polygon fill="white" stroke="white" stroke-width="2" points="341.35,-33.15 350.35,-30 341.35,-26.85 341.35,-33.15"/>
</g>
<!-- EXEC -->
<g id="node4" class="node">
<title>EXEC</title>
<path fill="#e74c3c" stroke="#e74c3c" stroke-width="2.5" d="M630.8,-51.6C630.8,-51.6 539.6,-51.6 539.6,-51.6 533.6,-51.6 527.6,-45.6 527.6,-39.6 527.6,-39.6 527.6,-20.4 527.6,-20.4 527.6,-14.4 533.6,-8.4 539.6,-8.4 539.6,-8.4 630.8,-8.4 630.8,-8.4 636.8,-8.4 642.8,-14.4 642.8,-20.4 642.8,-20.4 642.8,-39.6 642.8,-39.6 642.8,-45.6 636.8,-51.6 630.8,-51.6"/>
<text xml:space="preserve" text-anchor="middle" x="585.2" y="-26.65" font-family="Segoe UI,Helvetica,Arial,sans-serif" font-size="13.00" fill="white">Execution</text>
</g>
<!-- IA&#45;&gt;EXEC -->
<g id="edge2" class="edge">
<title>IA&#45;&gt;EXEC</title>
<path fill="none" stroke="#e74c3c" stroke-width="2" d="M470.48,-30C484.74,-30 500.17,-30 514.92,-30"/>
<polygon fill="#e74c3c" stroke="#e74c3c" stroke-width="2" points="514.55,-33.15 523.55,-30 514.55,-26.85 514.55,-33.15"/>
</g>
<!-- PERS -->
<g id="node5" class="node">
<title>PERS</title>
<path fill="#e74c3c" stroke="#e74c3c" stroke-width="2.5" d="M804,-51.6C804,-51.6 712.8,-51.6 712.8,-51.6 706.8,-51.6 700.8,-45.6 700.8,-39.6 700.8,-39.6 700.8,-20.4 700.8,-20.4 700.8,-14.4 706.8,-8.4 712.8,-8.4 712.8,-8.4 804,-8.4 804,-8.4 810,-8.4 816,-14.4 816,-20.4 816,-20.4 816,-39.6 816,-39.6 816,-45.6 810,-51.6 804,-51.6"/>
<text xml:space="preserve" text-anchor="middle" x="758.4" y="-26.65" font-family="Segoe UI,Helvetica,Arial,sans-serif" font-size="13.00" fill="white">Persistence</text>
</g>
<!-- EXEC&#45;&gt;PERS -->
<g id="edge3" class="edge">
<title>EXEC&#45;&gt;PERS</title>
<path fill="none" stroke="#e74c3c" stroke-width="2" d="M643.68,-30C657.94,-30 673.37,-30 688.12,-30"/>
<polygon fill="#e74c3c" stroke="#e74c3c" stroke-width="2" points="687.75,-33.15 696.75,-30 687.75,-26.85 687.75,-33.15"/>
</g>
<!-- PE -->
<g id="node6" class="node">
<title>PE</title>
<path fill="#e74c3c" stroke="#e74c3c" stroke-width="2.5" d="M977.2,-52C977.2,-52 886,-52 886,-52 880,-52 874,-46 874,-40 874,-40 874,-20 874,-20 874,-14 880,-8 886,-8 886,-8 977.2,-8 977.2,-8 983.2,-8 989.2,-14 989.2,-20 989.2,-20 989.2,-40 989.2,-40 989.2,-46 983.2,-52 977.2,-52"/>
<text xml:space="preserve" text-anchor="middle" x="931.6" y="-35.65" font-family="Segoe UI,Helvetica,Arial,sans-serif" font-size="13.00" fill="white">Privilege</text>
<text xml:space="preserve" text-anchor="middle" x="931.6" y="-17.65" font-family="Segoe UI,Helvetica,Arial,sans-serif" font-size="13.00" fill="white">Escalation</text>
</g>
<!-- PERS&#45;&gt;PE -->
<g id="edge4" class="edge">
<title>PERS&#45;&gt;PE</title>
<path fill="none" stroke="#e74c3c" stroke-width="2" d="M816.88,-30C831.14,-30 846.57,-30 861.32,-30"/>
<polygon fill="#e74c3c" stroke="#e74c3c" stroke-width="2" points="860.95,-33.15 869.95,-30 860.95,-26.85 860.95,-33.15"/>
</g>
<!-- DE -->
<g id="node7" class="node">
<title>DE</title>
<path fill="#e67e22" stroke="#e67e22" stroke-width="2.5" d="M1150.4,-52C1150.4,-52 1059.2,-52 1059.2,-52 1053.2,-52 1047.2,-46 1047.2,-40 1047.2,-40 1047.2,-20 1047.2,-20 1047.2,-14 1053.2,-8 1059.2,-8 1059.2,-8 1150.4,-8 1150.4,-8 1156.4,-8 1162.4,-14 1162.4,-20 1162.4,-20 1162.4,-40 1162.4,-40 1162.4,-46 1156.4,-52 1150.4,-52"/>
<text xml:space="preserve" text-anchor="middle" x="1104.8" y="-35.65" font-family="Segoe UI,Helvetica,Arial,sans-serif" font-size="13.00" fill="white">Defense</text>
<text xml:space="preserve" text-anchor="middle" x="1104.8" y="-17.65" font-family="Segoe UI,Helvetica,Arial,sans-serif" font-size="13.00" fill="white">Evasion</text>
</g>
<!-- PE&#45;&gt;DE -->
<g id="edge9" class="edge">
<title>PE&#45;&gt;DE</title>
<path fill="none" stroke="white" stroke-width="2" d="M990.08,-30C1004.34,-30 1019.77,-30 1034.52,-30"/>
<polygon fill="white" stroke="white" stroke-width="2" points="1034.15,-33.15 1043.15,-30 1034.15,-26.85 1034.15,-33.15"/>
</g>
<!-- CA -->
<g id="node8" class="node">
<title>CA</title>
<path fill="#e67e22" stroke="#e67e22" stroke-width="2.5" d="M1323.6,-52C1323.6,-52 1232.4,-52 1232.4,-52 1226.4,-52 1220.4,-46 1220.4,-40 1220.4,-40 1220.4,-20 1220.4,-20 1220.4,-14 1226.4,-8 1232.4,-8 1232.4,-8 1323.6,-8 1323.6,-8 1329.6,-8 1335.6,-14 1335.6,-20 1335.6,-20 1335.6,-40 1335.6,-40 1335.6,-46 1329.6,-52 1323.6,-52"/>
<text xml:space="preserve" text-anchor="middle" x="1278" y="-35.65" font-family="Segoe UI,Helvetica,Arial,sans-serif" font-size="13.00" fill="white">Credential</text>
<text xml:space="preserve" text-anchor="middle" x="1278" y="-17.65" font-family="Segoe UI,Helvetica,Arial,sans-serif" font-size="13.00" fill="white">Access</text>
</g>
<!-- DE&#45;&gt;CA -->
<g id="edge6" class="edge">
<title>DE&#45;&gt;CA</title>
<path fill="none" stroke="#e67e22" stroke-width="2" d="M1163.28,-30C1177.54,-30 1192.97,-30 1207.72,-30"/>
<polygon fill="#e67e22" stroke="#e67e22" stroke-width="2" points="1207.35,-33.15 1216.35,-30 1207.35,-26.85 1207.35,-33.15"/>
</g>
<!-- DISC -->
<g id="node9" class="node">
<title>DISC</title>
<path fill="#e67e22" stroke="#e67e22" stroke-width="2.5" d="M1496.8,-51.6C1496.8,-51.6 1405.6,-51.6 1405.6,-51.6 1399.6,-51.6 1393.6,-45.6 1393.6,-39.6 1393.6,-39.6 1393.6,-20.4 1393.6,-20.4 1393.6,-14.4 1399.6,-8.4 1405.6,-8.4 1405.6,-8.4 1496.8,-8.4 1496.8,-8.4 1502.8,-8.4 1508.8,-14.4 1508.8,-20.4 1508.8,-20.4 1508.8,-39.6 1508.8,-39.6 1508.8,-45.6 1502.8,-51.6 1496.8,-51.6"/>
<text xml:space="preserve" text-anchor="middle" x="1451.2" y="-26.65" font-family="Segoe UI,Helvetica,Arial,sans-serif" font-size="13.00" fill="white">Discovery</text>
</g>
<!-- CA&#45;&gt;DISC -->
<g id="edge7" class="edge">
<title>CA&#45;&gt;DISC</title>
<path fill="none" stroke="#e67e22" stroke-width="2" d="M1336.48,-30C1350.74,-30 1366.17,-30 1380.92,-30"/>
<polygon fill="#e67e22" stroke="#e67e22" stroke-width="2" points="1380.55,-33.15 1389.55,-30 1380.55,-26.85 1380.55,-33.15"/>
</g>
<!-- LM -->
<g id="node10" class="node">
<title>LM</title>
<path fill="#e67e22" stroke="#e67e22" stroke-width="2.5" d="M1670,-52C1670,-52 1578.8,-52 1578.8,-52 1572.8,-52 1566.8,-46 1566.8,-40 1566.8,-40 1566.8,-20 1566.8,-20 1566.8,-14 1572.8,-8 1578.8,-8 1578.8,-8 1670,-8 1670,-8 1676,-8 1682,-14 1682,-20 1682,-20 1682,-40 1682,-40 1682,-46 1676,-52 1670,-52"/>
<text xml:space="preserve" text-anchor="middle" x="1624.4" y="-35.65" font-family="Segoe UI,Helvetica,Arial,sans-serif" font-size="13.00" fill="white">Lateral</text>
<text xml:space="preserve" text-anchor="middle" x="1624.4" y="-17.65" font-family="Segoe UI,Helvetica,Arial,sans-serif" font-size="13.00" fill="white">Movement</text>
</g>
<!-- DISC&#45;&gt;LM -->
<g id="edge8" class="edge">
<title>DISC&#45;&gt;LM</title>
<path fill="none" stroke="#e67e22" stroke-width="2" d="M1509.68,-30C1523.94,-30 1539.37,-30 1554.12,-30"/>
<polygon fill="#e67e22" stroke="#e67e22" stroke-width="2" points="1553.75,-33.15 1562.75,-30 1553.75,-26.85 1553.75,-33.15"/>
</g>
<!-- COLL -->
<g id="node11" class="node">
<title>COLL</title>
<path fill="#9b59b6" stroke="#9b59b6" stroke-width="2.5" d="M1843.2,-51.6C1843.2,-51.6 1752,-51.6 1752,-51.6 1746,-51.6 1740,-45.6 1740,-39.6 1740,-39.6 1740,-20.4 1740,-20.4 1740,-14.4 1746,-8.4 1752,-8.4 1752,-8.4 1843.2,-8.4 1843.2,-8.4 1849.2,-8.4 1855.2,-14.4 1855.2,-20.4 1855.2,-20.4 1855.2,-39.6 1855.2,-39.6 1855.2,-45.6 1849.2,-51.6 1843.2,-51.6"/>
<text xml:space="preserve" text-anchor="middle" x="1797.6" y="-26.65" font-family="Segoe UI,Helvetica,Arial,sans-serif" font-size="13.00" fill="white">Collection</text>
</g>
<!-- LM&#45;&gt;COLL -->
<g id="edge13" class="edge">
<title>LM&#45;&gt;COLL</title>
<path fill="none" stroke="white" stroke-width="2" d="M1682.88,-30C1697.14,-30 1712.57,-30 1727.32,-30"/>
<polygon fill="white" stroke="white" stroke-width="2" points="1726.95,-33.15 1735.95,-30 1726.95,-26.85 1726.95,-33.15"/>
</g>
<!-- C2 -->
<g id="node12" class="node">
<title>C2</title>
<path fill="#9b59b6" stroke="#9b59b6" stroke-width="2.5" d="M2016.4,-52C2016.4,-52 1925.2,-52 1925.2,-52 1919.2,-52 1913.2,-46 1913.2,-40 1913.2,-40 1913.2,-20 1913.2,-20 1913.2,-14 1919.2,-8 1925.2,-8 1925.2,-8 2016.4,-8 2016.4,-8 2022.4,-8 2028.4,-14 2028.4,-20 2028.4,-20 2028.4,-40 2028.4,-40 2028.4,-46 2022.4,-52 2016.4,-52"/>
<text xml:space="preserve" text-anchor="middle" x="1970.8" y="-35.65" font-family="Segoe UI,Helvetica,Arial,sans-serif" font-size="13.00" fill="white">Command &amp;</text>
<text xml:space="preserve" text-anchor="middle" x="1970.8" y="-17.65" font-family="Segoe UI,Helvetica,Arial,sans-serif" font-size="13.00" fill="white">Control</text>
</g>
<!-- COLL&#45;&gt;C2 -->
<g id="edge10" class="edge">
<title>COLL&#45;&gt;C2</title>
<path fill="none" stroke="#9b59b6" stroke-width="2" d="M1856.08,-30C1870.34,-30 1885.77,-30 1900.52,-30"/>
<polygon fill="#9b59b6" stroke="#9b59b6" stroke-width="2" points="1900.15,-33.15 1909.15,-30 1900.15,-26.85 1900.15,-33.15"/>
</g>
<!-- EXFIL -->
<g id="node13" class="node">
<title>EXFIL</title>
<path fill="#9b59b6" stroke="#9b59b6" stroke-width="2.5" d="M2189.6,-51.6C2189.6,-51.6 2098.4,-51.6 2098.4,-51.6 2092.4,-51.6 2086.4,-45.6 2086.4,-39.6 2086.4,-39.6 2086.4,-20.4 2086.4,-20.4 2086.4,-14.4 2092.4,-8.4 2098.4,-8.4 2098.4,-8.4 2189.6,-8.4 2189.6,-8.4 2195.6,-8.4 2201.6,-14.4 2201.6,-20.4 2201.6,-20.4 2201.6,-39.6 2201.6,-39.6 2201.6,-45.6 2195.6,-51.6 2189.6,-51.6"/>
<text xml:space="preserve" text-anchor="middle" x="2144" y="-26.65" font-family="Segoe UI,Helvetica,Arial,sans-serif" font-size="13.00" fill="white">Exfiltration</text>
</g>
<!-- C2&#45;&gt;EXFIL -->
<g id="edge11" class="edge">
<title>C2&#45;&gt;EXFIL</title>
<path fill="none" stroke="#9b59b6" stroke-width="2" d="M2029.28,-30C2043.54,-30 2058.97,-30 2073.72,-30"/>
<polygon fill="#9b59b6" stroke="#9b59b6" stroke-width="2" points="2073.35,-33.15 2082.35,-30 2073.35,-26.85 2073.35,-33.15"/>
</g>
<!-- IMP -->
<g id="node14" class="node">
<title>IMP</title>
<path fill="#9b59b6" stroke="#9b59b6" stroke-width="2.5" d="M2362.8,-51.6C2362.8,-51.6 2271.6,-51.6 2271.6,-51.6 2265.6,-51.6 2259.6,-45.6 2259.6,-39.6 2259.6,-39.6 2259.6,-20.4 2259.6,-20.4 2259.6,-14.4 2265.6,-8.4 2271.6,-8.4 2271.6,-8.4 2362.8,-8.4 2362.8,-8.4 2368.8,-8.4 2374.8,-14.4 2374.8,-20.4 2374.8,-20.4 2374.8,-39.6 2374.8,-39.6 2374.8,-45.6 2368.8,-51.6 2362.8,-51.6"/>
<text xml:space="preserve" text-anchor="middle" x="2317.2" y="-26.65" font-family="Segoe UI,Helvetica,Arial,sans-serif" font-size="13.00" fill="white">Impact</text>
</g>
<!-- EXFIL&#45;&gt;IMP -->
<g id="edge12" class="edge">
<title>EXFIL&#45;&gt;IMP</title>
<path fill="none" stroke="#9b59b6" stroke-width="2" d="M2202.48,-30C2216.74,-30 2232.17,-30 2246.92,-30"/>
<polygon fill="#9b59b6" stroke="#9b59b6" stroke-width="2" points="2246.55,-33.15 2255.55,-30 2246.55,-26.85 2246.55,-33.15"/>
</g>
</g>
</svg>
